<svg preserveAspectRatio="none" width="100%" height="100%" overflow="visible" style="display: block;" viewBox="0 0 14 14" fill="none" xmlns="http://www.w3.org/2000/svg">
<g id="ScanLine">
<path id="Vector" d="M1.75 4.08333V2.91667C1.75 2.60725 1.87292 2.3105 2.09171 2.09171C2.3105 1.87292 2.60725 1.75 2.91667 1.75H4.08333" stroke="#0DA0CE" stroke-width="1.16667" stroke-linecap="round" stroke-linejoin="round"/>
<path id="Vector_2" d="M9.91667 1.75H11.0833C11.3928 1.75 11.6895 1.87292 11.9083 2.09171C12.1271 2.3105 12.25 2.60725 12.25 2.91667V4.08333" stroke="#0DA0CE" stroke-width="1.16667" stroke-linecap="round" stroke-linejoin="round"/>
<path id="Vector_3" d="M12.25 9.91667V11.0833C12.25 11.3928 12.1271 11.6895 11.9083 11.9083C11.6895 12.1271 11.3928 12.25 11.0833 12.25H9.91667" stroke="#0DA0CE" stroke-width="1.16667" stroke-linecap="round" stroke-linejoin="round"/>
<path id="Vector_4" d="M4.08333 12.25H2.91667C2.60725 12.25 2.3105 12.1271 2.09171 11.9083C1.87292 11.6895 1.75 11.3928 1.75 11.0833V9.91667" stroke="#0DA0CE" stroke-width="1.16667" stroke-linecap="round" stroke-linejoin="round"/>
<path id="Vector_5" d="M4.08333 7H9.91667" stroke="#0DA0CE" stroke-width="1.16667" stroke-linecap="round" stroke-linejoin="round"/>
</g>
</svg>
